<svg width="30" height="28" viewBox="0 0 30 28" fill="none" xmlns="http://www.w3.org/2000/svg">
<path d="M12.4995 23.3333C12.4994 23.5501 12.5641 23.7627 12.6862 23.9471C12.8083 24.1316 12.983 24.2806 13.1908 24.3775L15.6908 25.5442C15.8814 25.6331 16.0932 25.675 16.3061 25.666C16.519 25.657 16.7259 25.5974 16.9071 25.4928C17.0883 25.3881 17.2379 25.242 17.3416 25.0683C17.4453 24.8945 17.4996 24.6989 17.4995 24.5V16.3333C17.4998 15.7551 17.7301 15.1976 18.1458 14.7688L27.1745 5.44833C27.3364 5.28099 27.4428 5.07346 27.4809 4.85086C27.5191 4.62826 27.4873 4.40012 27.3894 4.19402C27.2916 3.98792 27.1319 3.81269 26.9296 3.68953C26.7273 3.56636 26.4911 3.50053 26.2495 3.5H3.74955C3.50781 3.50008 3.27128 3.56558 3.06861 3.68858C2.86594 3.81157 2.70584 3.98677 2.60768 4.19296C2.50952 4.39915 2.47753 4.62748 2.51558 4.85029C2.55363 5.0731 2.66008 5.28084 2.82205 5.44833L11.8533 14.7688C12.269 15.1976 12.4993 15.7551 12.4995 16.3333V23.3333Z" stroke="white" stroke-width="2" stroke-linecap="round" stroke-linejoin="round"/>
</svg>
