<svg width="22" height="22" viewBox="0 0 22 22" fill="none" xmlns="http://www.w3.org/2000/svg">
<path d="M17.8707 13.75C18.0979 13.7498 18.3187 13.8247 18.499 13.9629C18.6793 14.1012 18.8088 14.2951 18.8676 14.5145C19.0113 15.0856 19.3071 15.6071 19.7235 16.0236C20.14 16.44 20.6615 16.7358 21.2326 16.8795C21.4519 16.9382 21.6458 17.0677 21.784 17.2478C21.9223 17.4279 21.9972 17.6486 21.9972 17.8757C21.9972 18.1028 21.9223 18.3235 21.784 18.5036C21.6458 18.6837 21.4519 18.8132 21.2326 18.8719C20.6615 19.0156 20.14 19.3114 19.7235 19.7278C19.3071 20.1443 19.0113 20.6658 18.8676 21.2369C18.8093 21.4568 18.68 21.6513 18.4997 21.7901C18.3194 21.9288 18.0982 22.0041 17.8707 22.0041C17.6432 22.0041 17.4221 21.9288 17.2418 21.7901C17.0614 21.6513 16.9321 21.4568 16.8738 21.2369C16.7301 20.6658 16.4343 20.1443 16.0179 19.7278C15.6015 19.3114 15.08 19.0156 14.5088 18.8719C14.2889 18.8136 14.0944 18.6843 13.9556 18.504C13.8169 18.3237 13.7416 18.1025 13.7416 17.875C13.7416 17.6475 13.8169 17.4263 13.9556 17.246C14.0944 17.0657 14.2889 16.9364 14.5088 16.8781C15.08 16.7344 15.6015 16.4386 16.0179 16.0222C16.4343 15.6057 16.7301 15.0842 16.8738 14.5131L16.933 14.3522C17.0152 14.1726 17.1472 14.0203 17.3135 13.9135C17.4797 13.8068 17.6731 13.75 17.8707 13.75ZM9.62071 1.03978e-07C10.109 -0.000154857 10.5814 0.172901 10.9541 0.488379C11.3267 0.803857 11.5753 1.2413 11.6557 1.72288C11.9885 3.7235 12.6127 4.97338 13.4432 5.80388C14.2723 6.633 15.5222 7.25725 17.5228 7.59137C18.0034 7.67264 18.4397 7.92147 18.7542 8.29373C19.0688 8.66598 19.2414 9.13762 19.2414 9.625C19.2414 10.1124 19.0688 10.584 18.7542 10.9563C18.4397 11.3285 18.0034 11.5774 17.5228 11.6586C15.5222 11.9928 14.2723 12.617 13.4418 13.4461C12.6127 14.2766 11.9885 15.5265 11.6543 17.5271C11.5731 18.0077 11.3242 18.4439 10.952 18.7585C10.5797 19.0731 10.1081 19.2457 9.62071 19.2457C9.13333 19.2457 8.6617 19.0731 8.28944 18.7585C7.91718 18.4439 7.66836 18.0077 7.58709 17.5271C7.25296 15.5265 6.62871 14.2766 5.79959 13.4461C4.96909 12.617 3.71921 11.9928 1.71859 11.6586C1.23803 11.5774 0.801776 11.3285 0.487187 10.9563C0.172597 10.584 0 10.1124 0 9.625C0 9.13762 0.172597 8.66598 0.487187 8.29373C0.801776 7.92147 1.23803 7.67264 1.71859 7.59137C3.71921 7.25725 4.96909 6.633 5.79959 5.80388C6.62871 4.97338 7.25296 3.7235 7.58709 1.72288L7.62559 1.54C7.74111 1.09886 7.99958 0.708445 8.36056 0.429807C8.72155 0.151169 9.1647 2.09506e-05 9.62071 1.03978e-07ZM9.62071 2.0625C8.86446 6.6 6.59571 8.86875 2.05821 9.625C6.59571 10.3813 8.86446 12.65 9.62071 17.1875C10.377 12.65 12.6457 10.3813 17.1832 9.625C12.6457 8.86875 10.377 6.6 9.62071 2.0625Z" fill="#2FC1BE"/>
</svg>
