<svg width="33" height="33" viewBox="0 0 33 33" fill="none" xmlns="http://www.w3.org/2000/svg">
<path d="M0 33V7.33333H7.33333V0H25.6667V14.6667H33V33H18.3333V25.6667H14.6667V33H0ZM3.66667 29.3333H7.33333V25.6667H3.66667V29.3333ZM3.66667 22H7.33333V18.3333H3.66667V22ZM3.66667 14.6667H7.33333V11H3.66667V14.6667ZM11 22H14.6667V18.3333H11V22ZM11 14.6667H14.6667V11H11V14.6667ZM11 7.33333H14.6667V3.66667H11V7.33333ZM18.3333 22H22V18.3333H18.3333V22ZM18.3333 14.6667H22V11H18.3333V14.6667ZM18.3333 7.33333H22V3.66667H18.3333V7.33333ZM25.6667 29.3333H29.3333V25.6667H25.6667V29.3333ZM25.6667 22H29.3333V18.3333H25.6667V22Z" fill="#6C7F91"/>
</svg>
