<svg width="28" height="28" viewBox="0 0 28 28" fill="none" xmlns="http://www.w3.org/2000/svg">
<path fill-rule="evenodd" clip-rule="evenodd" d="M5.34104 1.93784C4.17467 1.93784 3.22917 2.88334 3.22917 4.04971V12.917H26.8021C27.059 12.917 27.3054 13.0191 27.4871 13.2007C27.6688 13.3824 27.7708 13.6288 27.7708 13.8858C27.7708 14.1427 27.6688 14.3891 27.4871 14.5708C27.3054 14.7524 27.059 14.8545 26.8021 14.8545H26.4559C26.4645 14.9122 26.4706 14.9708 26.474 15.0302C26.4783 15.1059 26.48 15.1834 26.4792 15.2627V15.313C26.4792 15.7974 26.4792 16.0816 26.4585 16.398C26.2751 19.2862 24.7148 21.9548 22.453 23.6985L22.5021 23.7864L23.7938 26.3697C23.8518 26.4837 23.8867 26.6079 23.8964 26.7354C23.9061 26.8629 23.8905 26.9911 23.8505 27.1125C23.8105 27.2339 23.7468 27.3462 23.6631 27.4429C23.5795 27.5396 23.4776 27.6188 23.3632 27.6759C23.2488 27.733 23.1242 27.7669 22.9967 27.7756C22.8691 27.7844 22.7411 27.7678 22.62 27.7268C22.4989 27.6858 22.3871 27.6213 22.291 27.5369C22.195 27.4525 22.1166 27.35 22.0604 27.2351L20.81 24.7358C19.5178 25.396 18.0915 25.7517 16.6405 25.7755H16.6315C15.6757 25.8117 14.7405 25.8337 13.8854 25.8337C13.0303 25.8337 12.0952 25.8117 11.1393 25.7755H11.1303C9.67931 25.7517 8.25305 25.396 6.96079 24.7358L5.71046 27.2351C5.65424 27.35 5.57585 27.4525 5.4798 27.5369C5.38376 27.6213 5.27196 27.6858 5.15085 27.7268C5.02974 27.7678 4.90172 27.7844 4.77417 27.7756C4.64661 27.7669 4.52205 27.733 4.40766 27.6759C4.29328 27.6188 4.19132 27.5396 4.10769 27.4429C4.02405 27.3462 3.96038 27.2339 3.92035 27.1125C3.88031 26.9911 3.86472 26.8629 3.87445 26.7354C3.88418 26.6079 3.91905 26.4837 3.97704 26.3697L5.26871 23.7864L5.31779 23.6985C3.05608 21.9548 1.49446 19.2862 1.31233 16.398C1.29376 16.0367 1.28686 15.6748 1.29167 15.313V14.8545H0.96875C0.711822 14.8545 0.465416 14.7524 0.28374 14.5708C0.102064 14.3891 0 14.1427 0 13.8858C0 13.6288 0.102064 13.3824 0.28374 13.2007C0.465416 13.0191 0.711822 12.917 0.96875 12.917H1.29167V4.04971C1.29159 3.10853 1.61936 2.19672 2.21865 1.47099C2.81793 0.74527 3.65129 0.250961 4.5755 0.0730291C5.4997 -0.104903 6.45703 0.044656 7.28293 0.496C8.10882 0.947343 8.75171 1.67228 9.10108 2.54621L9.24317 2.90142C10.3032 2.63051 11.4231 2.7177 12.4284 3.14942C13.0544 3.41898 13.6203 3.8106 14.0931 4.3014C14.566 4.7922 14.9362 5.37233 15.1823 6.00788C15.2742 6.24189 15.2716 6.50249 15.1749 6.73461C15.0783 6.96673 14.8952 7.15217 14.6643 7.25175L6.96596 10.5662C6.8468 10.6176 6.71852 10.6446 6.58873 10.6456C6.45893 10.6465 6.33027 10.6213 6.21039 10.5716C6.09051 10.5218 5.98185 10.4485 5.89087 10.3559C5.79988 10.2633 5.72843 10.1534 5.68075 10.0327C5.17339 8.74135 5.18264 7.30423 5.70658 6.0195C6.07536 5.10473 6.69226 4.31112 7.48779 3.72809L7.30179 3.26567C7.14509 2.87374 6.87453 2.53776 6.52504 2.30108C6.17554 2.0644 5.76314 1.93787 5.34104 1.93784ZM3.65929 14.8545H3.53013C3.44834 14.8601 3.37174 14.8965 3.31586 14.9565C3.25997 15.0165 3.22898 15.0954 3.22917 15.1774V15.2846C3.22917 15.8039 3.22917 16.026 3.24596 16.2753C3.48492 20.0496 6.727 23.4157 10.4883 23.7967C10.7402 23.8225 10.8797 23.8264 11.2117 23.8393C12.152 23.8742 13.0626 23.8962 13.8854 23.8962C14.7082 23.8962 15.6188 23.8742 16.5592 23.8393C16.8911 23.8264 17.0306 23.8213 17.2825 23.7954C21.0438 23.4157 24.2859 20.0496 24.5262 16.2753C24.5417 16.026 24.5417 15.8039 24.5417 15.2846V15.1568C24.5417 15.1542 24.5417 15.1542 24.5417 15.1568C24.5365 15.0784 24.5029 15.0047 24.4473 14.9493C24.3917 14.8939 24.3178 14.8606 24.2394 14.8558C24.2411 14.8558 24.2411 14.8558 24.2394 14.8558H24.2188L24.1128 14.8545H3.65929ZM11.6676 4.93192C11.2625 4.75811 10.8246 4.67423 10.3839 4.68605C9.94331 4.69787 9.51048 4.80511 9.11529 5.00038C8.37941 5.36372 7.80421 5.98678 7.50071 6.74929C7.29709 7.25095 7.21307 7.79312 7.25529 8.33288L12.9128 5.89679C12.5874 5.47314 12.158 5.14077 11.6663 4.93192" fill="#1B8785"/>
</svg>
