<svg width="18" height="11" viewBox="0 0 18 11" fill="none" xmlns="http://www.w3.org/2000/svg">
<path d="M6.33751 7.42867V0H14.5875C15.5259 0 16.3293 0.424363 16.9975 1.27309C17.6658 2.12161 18 3.14171 18 4.33339V7.42867H6.33751ZM0 11V9.14283H18V11H0ZM2.49381 7.42867C1.79376 7.42867 1.20315 7.12306 0.721989 6.51185C0.240663 5.90084 0 5.15085 0 4.26189C0 3.37313 0.240663 2.62315 0.721989 2.01193C1.20315 1.40092 1.79376 1.09542 2.49381 1.09542C3.1937 1.09542 3.78431 1.40092 4.26563 2.01193C4.7468 2.62315 4.98738 3.37313 4.98738 4.26189C4.98738 5.15085 4.7468 5.90084 4.26563 6.51185C3.78431 7.12306 3.1937 7.42867 2.49381 7.42867ZM2.49381 5.5715C2.78599 5.5715 3.03088 5.44604 3.22848 5.19512C3.42624 4.94398 3.52512 4.63291 3.52512 4.26189C3.52512 3.89087 3.42624 3.5799 3.22848 3.32897C3.03088 3.07784 2.78599 2.95228 2.49381 2.95228C2.20164 2.95228 1.95667 3.07784 1.7589 3.32897C1.5613 3.5799 1.4625 3.89087 1.4625 4.26189C1.4625 4.63291 1.5613 4.94398 1.7589 5.19512C1.95667 5.44604 2.20164 5.5715 2.49381 5.5715ZM7.80002 5.5715H16.5375V4.33339C16.5375 3.65243 16.3466 3.06948 15.9647 2.58456C15.5828 2.09963 15.1237 1.85717 14.5875 1.85717H7.80002V5.5715Z" fill="#787879"/>
</svg>
