<svg width="11" height="12" viewBox="0 0 11 12" fill="none" xmlns="http://www.w3.org/2000/svg">
<path d="M0 5.25V0H4.8125V5.25H0ZM0.6875 4.5H4.125V0.75H0.6875V4.5ZM0 12V6.75H4.8125V12H0ZM0.6875 11.25H4.125V7.5H0.6875V11.25ZM6.1875 5.25V0H11V5.25H6.1875ZM6.875 4.5H10.3125V0.75H6.875V4.5ZM9.79688 12V10.6875H11V12H9.79688ZM6.1875 8.0625V6.75H7.39062V8.0625H6.1875ZM7.39062 9.375V8.0625H8.59375V9.375H7.39062ZM6.1875 10.6875V9.375H7.39062V10.6875H6.1875ZM7.39062 12V10.6875H8.59375V12H7.39062ZM8.59375 10.6875V9.375H9.79688V10.6875H8.59375ZM8.59375 8.0625V6.75H9.79688V8.0625H8.59375ZM9.79688 9.375V8.0625H11V9.375H9.79688Z" fill="black"/>
</svg>
