<svg width="21" height="21" viewBox="0 0 21 21" fill="none" xmlns="http://www.w3.org/2000/svg">
<path d="M7.00042 0C7.18608 0 7.36414 0.0737443 7.49542 0.20501C7.62671 0.336276 7.70046 0.514311 7.70046 0.699948V1.3999H10.5006C11.0576 1.3999 11.5918 1.62113 11.9856 2.01493C12.3795 2.40873 12.6008 2.94283 12.6008 3.49974V4.31588C12.4346 4.37468 12.2773 4.45681 12.1289 4.56226C11.7929 4.80025 11.5409 5.13622 11.3869 5.55759L10.8969 7.05828C10.8145 7.30618 10.6755 7.53146 10.4908 7.71623C10.3088 7.89962 10.0834 8.05361 9.85939 8.1236L8.3319 8.61357C8.0561 8.71096 7.805 8.86759 7.59625 9.07244C7.3875 9.2773 7.22618 9.52539 7.12362 9.79928H3.50021C2.94322 9.79928 2.40905 9.57805 2.0152 9.18425C1.62135 8.79045 1.40008 8.25635 1.40008 7.69943V3.49974C1.40008 2.94283 1.62135 2.40873 2.0152 2.01493C2.40905 1.62113 2.94322 1.3999 3.50021 1.3999H6.30038V0.699948C6.30038 0.514311 6.37413 0.336276 6.50541 0.20501C6.6367 0.0737443 6.81475 0 7.00042 0ZM8.3585 12.3863C8.06359 12.288 7.79629 12.121 7.57865 11.8991H2.10013C1.54314 11.8991 1.00896 12.1204 0.615113 12.5142C0.221263 12.908 0 13.4421 0 13.999V14.4889C0 16.3158 0.84005 17.6387 2.17573 18.4688C3.47081 19.2738 5.19431 19.5986 7.00042 19.5986C8.81633 19.5986 10.5398 19.2752 11.8335 18.4688C12.1285 18.2869 12.3963 18.0801 12.6372 17.8487C12.5659 17.4716 12.6139 17.0816 12.7744 16.733C12.5503 16.677 12.3403 16.579 12.1443 16.439C11.8114 16.1952 11.5577 15.8588 11.4149 15.4717L10.9109 13.943C10.7848 13.621 10.6588 13.439 10.5048 13.285C10.3168 13.1035 10.0919 12.9645 9.84539 12.8777L8.3585 12.3863ZM4.90029 6.64951C5.17879 6.64951 5.44587 6.53889 5.6428 6.342C5.83972 6.1451 5.95036 5.87804 5.95036 5.59959C5.95036 5.32113 5.83972 5.05408 5.6428 4.85718C5.44587 4.66028 5.17879 4.54966 4.90029 4.54966C4.6218 4.54966 4.35471 4.66028 4.15779 4.85718C3.96086 5.05408 3.85023 5.32113 3.85023 5.59959C3.85023 5.87804 3.96086 6.1451 4.15779 6.342C4.35471 6.53889 4.6218 6.64951 4.90029 6.64951ZM10.1506 5.59959C10.1506 5.32113 10.04 5.05408 9.84305 4.85718C9.64612 4.66028 9.37904 4.54966 9.10054 4.54966C8.82205 4.54966 8.55496 4.66028 8.35804 4.85718C8.16111 5.05408 8.05048 5.32113 8.05048 5.59959C8.05048 5.87804 8.16111 6.1451 8.35804 6.342C8.55496 6.53889 8.82205 6.64951 9.10054 6.64951C9.37904 6.64951 9.64612 6.53889 9.84305 6.342C10.04 6.1451 10.1506 5.87804 10.1506 5.59959ZM13.83 5.99436L14.3173 7.49365C14.4684 7.94968 14.7241 8.36404 15.0639 8.70361C15.4038 9.04318 15.8184 9.29855 16.2746 9.4493L17.7755 9.93647L17.8049 9.94487C17.9205 9.98557 18.0207 10.0612 18.0915 10.1612C18.1624 10.2613 18.2004 10.3808 18.2004 10.5034C18.2004 10.626 18.1624 10.7456 18.0915 10.8456C18.0207 10.9457 17.9205 11.0213 17.8049 11.062L16.3054 11.5492C15.8489 11.6997 15.434 11.955 15.0939 12.2946C14.7538 12.6342 14.4979 13.0486 14.3467 13.5048L13.8594 15.0027C13.8187 15.1183 13.7431 15.2185 13.6431 15.2893C13.543 15.3602 13.4234 15.3982 13.3008 15.3982C13.1782 15.3982 13.0586 15.3602 12.9585 15.2893C12.8585 15.2185 12.7829 15.1183 12.7422 15.0027L12.2549 13.5048C12.0798 12.9745 11.7638 12.5017 11.3407 12.1371C11.0347 11.8715 10.6793 11.6688 10.2948 11.5408L8.79393 11.0536C8.67827 11.0129 8.57811 10.9373 8.50725 10.8372C8.43639 10.7372 8.39834 10.6176 8.39834 10.495C8.39834 10.3724 8.43639 10.2529 8.50725 10.1528C8.57811 10.0528 8.67827 9.97717 8.79393 9.93647L10.2948 9.4493C10.7456 9.29466 11.1543 9.03756 11.4888 8.69821C11.8234 8.35886 12.0746 7.94653 12.2227 7.49365L12.71 5.99576C12.7504 5.87964 12.8259 5.77897 12.9262 5.70774C13.0264 5.6365 13.1463 5.59823 13.2693 5.59823C13.3923 5.59823 13.5122 5.6365 13.6124 5.70774C13.7126 5.77897 13.7882 5.87964 13.8286 5.99576M20.696 17.0983L19.625 16.7512C19.2992 16.6429 19.0031 16.4603 18.7601 16.2178C18.517 15.9753 18.3338 15.6796 18.2249 15.3541L17.8777 14.2831C17.8487 14.2005 17.7947 14.1288 17.7232 14.0781C17.6517 14.0274 17.5663 14.0002 17.4786 14.0002C17.391 14.0002 17.3055 14.0274 17.2341 14.0781C17.1626 14.1288 17.1086 14.2005 17.0796 14.2831L16.7296 15.3541C16.6231 15.6771 16.4435 15.9711 16.2048 16.2135C15.9661 16.4558 15.6747 16.6398 15.3533 16.7512L14.2823 17.0983C14.2206 17.1203 14.1649 17.1562 14.1194 17.2033C14.074 17.2503 14.04 17.3072 14.0202 17.3696C14.0004 17.432 13.9953 17.498 14.0053 17.5627C14.0153 17.6274 14.0401 17.6888 14.0778 17.7423C14.1282 17.8123 14.1996 17.8683 14.2823 17.8963L15.3533 18.2449C15.6797 18.3537 15.9762 18.5372 16.2193 18.7807C16.4623 19.0242 16.6452 19.321 16.7534 19.6476L17.1006 20.7171C17.1296 20.7998 17.1836 20.8714 17.2551 20.9221C17.3265 20.9728 17.412 21 17.4996 21C17.5873 21 17.6727 20.9728 17.7442 20.9221C17.8157 20.8714 17.8697 20.7998 17.8987 20.7171L18.2473 19.6476C18.3559 19.3219 18.5388 19.026 18.7816 18.7833C19.0244 18.5406 19.3203 18.3577 19.646 18.2491L20.717 17.9019C20.7997 17.8729 20.8714 17.8189 20.9221 17.7475C20.9728 17.676 21 17.5905 21 17.5029C21 17.4153 20.9728 17.3298 20.9221 17.2584C20.8714 17.1869 20.7997 17.1329 20.717 17.1039L20.696 17.0983Z" fill="#CFD6DC"/>
</svg>
