<svg width="21" height="21" viewBox="0 0 21 21" fill="none" xmlns="http://www.w3.org/2000/svg">
<path d="M1.75 16.625C1.75 18.1125 2.8875 19.25 4.375 19.25H16.625C18.1125 19.25 19.25 18.1125 19.25 16.625V9.625H1.75V16.625ZM16.625 3.5H14.875V2.625C14.875 2.1 14.525 1.75 14 1.75C13.475 1.75 13.125 2.1 13.125 2.625V3.5H7.875V2.625C7.875 2.1 7.525 1.75 7 1.75C6.475 1.75 6.125 2.1 6.125 2.625V3.5H4.375C2.8875 3.5 1.75 4.6375 1.75 6.125V7.875H19.25V6.125C19.25 4.6375 18.1125 3.5 16.625 3.5Z" fill="#CFD6DC"/>
</svg>
