<svg width="22" height="22" viewBox="0 0 22 22" fill="none" xmlns="http://www.w3.org/2000/svg">
<path d="M5.95833 15.7083L13.5417 13.5417L15.7083 5.95833L8.125 8.125L5.95833 15.7083ZM10.8333 12.4583C10.3819 12.4583 9.99844 12.3005 9.68283 11.9849C9.36722 11.6693 9.20906 11.2854 9.20833 10.8333C9.20761 10.3812 9.36578 9.99772 9.68283 9.68283C9.99989 9.36794 10.3834 9.20978 10.8333 9.20833C11.2833 9.20689 11.6671 9.36506 11.9849 9.68283C12.3027 10.0006 12.4605 10.3841 12.4583 10.8333C12.4562 11.2826 12.2984 11.6664 11.9849 11.9849C11.6715 12.3034 11.2876 12.4612 10.8333 12.4583ZM10.8333 21.6667C9.33472 21.6667 7.92639 21.3821 6.60834 20.813C5.29028 20.2439 4.14375 19.4722 3.16875 18.4979C2.19375 17.5236 1.42206 16.3771 0.853668 15.0583C0.285279 13.7396 0.000723593 12.3312 1.37131e-06 10.8333C-0.000720851 9.33544 0.283835 7.92711 0.853668 6.60833C1.4235 5.28956 2.1952 4.14303 3.16875 3.16875C4.14231 2.19447 5.28884 1.42278 6.60834 0.853667C7.92783 0.284556 9.33617 0 10.8333 0C12.3305 0 13.7388 0.284556 15.0583 0.853667C16.3778 1.42278 17.5244 2.19447 18.4979 3.16875C19.4715 4.14303 20.2435 5.28956 20.8141 6.60833C21.3846 7.92711 21.6688 9.33544 21.6667 10.8333C21.6645 12.3312 21.3799 13.7396 20.813 15.0583C20.2461 16.3771 19.4744 17.5236 18.4979 18.4979C17.5215 19.4722 16.3749 20.2442 15.0583 20.8141C13.7417 21.3839 12.3334 21.6681 10.8333 21.6667Z" fill="#CFD6DC"/>
</svg>
