<svg width="27" height="24" viewBox="0 0 27 24" fill="none" xmlns="http://www.w3.org/2000/svg">
<path d="M7.6155 21C7.15517 21 6.77083 20.8458 6.4625 20.5375C6.15417 20.2292 6 19.8448 6 19.3845V6.6155C6 6.15517 6.15417 5.77083 6.4625 5.4625C6.77083 5.15417 7.15517 5 7.6155 5H20.3845C20.8448 5 21.2292 5.15417 21.5375 5.4625C21.8458 5.77083 22 6.15517 22 6.6155V19.3845C22 19.8448 21.8458 20.2292 21.5375 20.5375C21.2292 20.8458 20.8448 21 20.3845 21H7.6155ZM7.6155 20H10.998V16.002H7V19.3845C7 19.564 7.05767 19.7115 7.173 19.827C7.2885 19.9423 7.436 20 7.6155 20ZM11.998 20H16.002V16.002H11.998V20ZM17.002 20H20.3845C20.564 20 20.7115 19.9423 20.827 19.827C20.9423 19.7115 21 19.564 21 19.3845V16.002H17.002V20ZM7 15.002H10.998V10.998H7V15.002ZM11.998 15.002H16.002V10.998H11.998V15.002ZM17.002 15.002H21V10.998H17.002V15.002ZM7 9.998H10.998V6H7.6155C7.436 6 7.2885 6.05767 7.173 6.173C7.05767 6.2885 7 6.436 7 6.6155V9.998ZM11.998 9.998H16.002V6H11.998V9.998ZM17.002 9.998H21V6.6155C21 6.436 20.9423 6.2885 20.827 6.173C20.7115 6.05767 20.564 6 20.3845 6H17.002V9.998Z" fill="white"/>
</svg>
