<svg width="32" height="35" viewBox="0 0 32 35" fill="none" xmlns="http://www.w3.org/2000/svg">
<path d="M28 0H14C13.0717 0 12.1815 0.368749 11.5251 1.02513C10.8687 1.6815 10.5 2.57174 10.5 3.5V14H3.5C1.56975 14 0 15.5697 0 17.5V33.25C0 33.7141 0.184374 34.1592 0.512563 34.4874C0.840752 34.8156 1.28587 35 1.75 35H29.75C30.2141 35 30.6593 34.8156 30.9874 34.4874C31.3156 34.1592 31.5 33.7141 31.5 33.25V3.5C31.5 2.57174 31.1313 1.6815 30.4749 1.02513C29.8185 0.368749 28.9283 0 28 0ZM3.5 31.5V17.5H14V31.5H3.5ZM19.25 10.5H15.75V7H19.25V10.5ZM26.25 24.5H22.75V21H26.25V24.5ZM26.25 17.5H22.75V14H26.25V17.5ZM26.25 10.5H22.75V7H26.25V10.5Z" fill="#6C7F91"/>
</svg>
