<svg width="22" height="22" viewBox="0 0 22 22" fill="none" xmlns="http://www.w3.org/2000/svg">
<path d="M3.66667 2.75H9.16667C9.67083 2.75 10.0833 3.1625 10.0833 3.66667V9.16667C10.0833 9.67083 9.67083 10.0833 9.16667 10.0833H3.66667C3.1625 10.0833 2.75 9.67083 2.75 9.16667V3.66667C2.75 3.1625 3.1625 2.75 3.66667 2.75ZM12.8333 2.75H18.3333C18.8375 2.75 19.25 3.1625 19.25 3.66667V9.16667C19.25 9.67083 18.8375 10.0833 18.3333 10.0833H12.8333C12.3292 10.0833 11.9167 9.67083 11.9167 9.16667V3.66667C11.9167 3.1625 12.3292 2.75 12.8333 2.75ZM3.66667 11.9167H9.16667C9.67083 11.9167 10.0833 12.3292 10.0833 12.8333V18.3333C10.0833 18.8375 9.67083 19.25 9.16667 19.25H3.66667C3.1625 19.25 2.75 18.8375 2.75 18.3333V12.8333C2.75 12.3292 3.1625 11.9167 3.66667 11.9167ZM15.5833 11.9167C15.0792 11.9167 14.6667 12.3292 14.6667 12.8333V14.6667H12.8333C12.3292 14.6667 11.9167 15.0792 11.9167 15.5833C11.9167 16.0875 12.3292 16.5 12.8333 16.5H14.6667V18.3333C14.6667 18.8375 15.0792 19.25 15.5833 19.25C16.0875 19.25 16.5 18.8375 16.5 18.3333V16.5H18.3333C18.8375 16.5 19.25 16.0875 19.25 15.5833C19.25 15.0792 18.8375 14.6667 18.3333 14.6667H16.5V12.8333C16.5 12.3292 16.0875 11.9167 15.5833 11.9167Z" fill="#CFD6DC"/>
</svg>
