<svg width="19" height="19" viewBox="0 0 19 19" fill="none" xmlns="http://www.w3.org/2000/svg">
<path d="M6.88527 7.75685C6.65411 7.75685 6.43242 7.84867 6.26897 8.01213C6.10552 8.17558 6.01369 8.39727 6.01369 8.62842V12.1147H7.75685V9.5H10.3716V11.6789L13.4221 8.62842L10.3716 5.57791V7.75685H6.88527ZM10.1162 0.255186L18.7448 8.8838C18.9082 9.04724 19 9.26889 19 9.5C19 9.73111 18.9082 9.95276 18.7448 10.1162L10.1162 18.7448C9.95276 18.9082 9.73111 19 9.5 19C9.26889 19 9.04724 18.9082 8.8838 18.7448L0.255186 10.1162C0.0917905 9.95276 0 9.73111 0 9.5C0 9.26889 0.0917905 9.04724 0.255186 8.8838L8.8838 0.255186C9.04724 0.0917905 9.26889 0 9.5 0C9.73111 0 9.95276 0.0917905 10.1162 0.255186Z" fill="white"/>
</svg>
