<svg width="17" height="19" viewBox="0 0 17 19" fill="none" xmlns="http://www.w3.org/2000/svg">
<path d="M5.3125 2.11312C5.03071 2.11312 4.76046 2.2243 4.5612 2.4222C4.36194 2.6201 4.25 2.88852 4.25 3.16839C4.25 3.44826 4.36194 3.71668 4.5612 3.91458C4.76046 4.11248 5.03071 4.22366 5.3125 4.22366C5.59429 4.22366 5.86454 4.11248 6.0638 3.91458C6.26306 3.71668 6.375 3.44826 6.375 3.16839C6.375 2.88852 6.26306 2.6201 6.0638 2.4222C5.86454 2.2243 5.59429 2.11312 5.3125 2.11312ZM2.30562 2.11312C2.52514 1.49523 2.93222 0.960172 3.47076 0.581706C4.0093 0.20324 4.65278 0 5.3125 0C5.97222 0 6.6157 0.20324 7.15424 0.581706C7.69278 0.960172 8.09986 1.49523 8.31938 2.11312H15.9375C16.2193 2.11312 16.4895 2.2243 16.6888 2.4222C16.8881 2.6201 17 2.88852 17 3.16839C17 3.44826 16.8881 3.71668 16.6888 3.91458C16.4895 4.11248 16.2193 4.22366 15.9375 4.22366H8.31938C8.09986 4.84155 7.69278 5.37661 7.15424 5.75508C6.6157 6.13354 5.97222 6.33678 5.3125 6.33678C4.65278 6.33678 4.0093 6.13354 3.47076 5.75508C2.93222 5.37661 2.52514 4.84155 2.30562 4.22366H1.0625C0.780707 4.22366 0.510457 4.11248 0.311199 3.91458C0.111942 3.71668 0 3.44826 0 3.16839C0 2.88852 0.111942 2.6201 0.311199 2.4222C0.510457 2.2243 0.780707 2.11312 1.0625 2.11312H2.30562ZM11.6875 8.44473C11.4057 8.44473 11.1355 8.55591 10.9362 8.75381C10.7369 8.95171 10.625 9.22013 10.625 9.5C10.625 9.77987 10.7369 10.0483 10.9362 10.2462C11.1355 10.4441 11.4057 10.5553 11.6875 10.5553C11.9693 10.5553 12.2395 10.4441 12.4388 10.2462C12.6381 10.0483 12.75 9.77987 12.75 9.5C12.75 9.22013 12.6381 8.95171 12.4388 8.75381C12.2395 8.55591 11.9693 8.44473 11.6875 8.44473ZM8.68062 8.44473C8.90014 7.82684 9.30722 7.29178 9.84576 6.91331C10.3843 6.53485 11.0278 6.33161 11.6875 6.33161C12.3472 6.33161 12.9907 6.53485 13.5292 6.91331C14.0678 7.29178 14.4749 7.82684 14.6944 8.44473H15.9375C16.2193 8.44473 16.4895 8.55591 16.6888 8.75381C16.8881 8.95171 17 9.22013 17 9.5C17 9.77987 16.8881 10.0483 16.6888 10.2462C16.4895 10.4441 16.2193 10.5553 15.9375 10.5553H14.6944C14.4749 11.1732 14.0678 11.7082 13.5292 12.0867C12.9907 12.4651 12.3472 12.6684 11.6875 12.6684C11.0278 12.6684 10.3843 12.4651 9.84576 12.0867C9.30722 11.7082 8.90014 11.1732 8.68062 10.5553H1.0625C0.780707 10.5553 0.510457 10.4441 0.311199 10.2462C0.111942 10.0483 0 9.77987 0 9.5C0 9.22013 0.111942 8.95171 0.311199 8.75381C0.510457 8.55591 0.780707 8.44473 1.0625 8.44473H8.68062ZM5.3125 14.7763C5.03071 14.7763 4.76046 14.8875 4.5612 15.0854C4.36194 15.2833 4.25 15.5517 4.25 15.8316C4.25 16.1115 4.36194 16.3799 4.5612 16.5778C4.76046 16.7757 5.03071 16.8869 5.3125 16.8869C5.59429 16.8869 5.86454 16.7757 6.0638 16.5778C6.26306 16.3799 6.375 16.1115 6.375 15.8316C6.375 15.5517 6.26306 15.2833 6.0638 15.0854C5.86454 14.8875 5.59429 14.7763 5.3125 14.7763ZM2.30562 14.7763C2.52514 14.1584 2.93222 13.6234 3.47076 13.2449C4.0093 12.8665 4.65278 12.6632 5.3125 12.6632C5.97222 12.6632 6.6157 12.8665 7.15424 13.2449C7.69278 13.6234 8.09986 14.1584 8.31938 14.7763H15.9375C16.2193 14.7763 16.4895 14.8875 16.6888 15.0854C16.8881 15.2833 17 15.5517 17 15.8316C17 16.1115 16.8881 16.3799 16.6888 16.5778C16.4895 16.7757 16.2193 16.8869 15.9375 16.8869H8.31938C8.09986 17.5048 7.69278 18.0398 7.15424 18.4183C6.6157 18.7968 5.97222 19 5.3125 19C4.65278 19 4.0093 18.7968 3.47076 18.4183C2.93222 18.0398 2.52514 17.5048 2.30562 16.8869H1.0625C0.780707 16.8869 0.510457 16.7757 0.311199 16.5778C0.111942 16.3799 0 16.1115 0 15.8316C0 15.5517 0.111942 15.2833 0.311199 15.0854C0.510457 14.8875 0.780707 14.7763 1.0625 14.7763H2.30562Z" fill="white"/>
</svg>
