<svg width="20" height="20" viewBox="0 0 20 20" fill="none" xmlns="http://www.w3.org/2000/svg">
<g clip-path="url(#clip0_904_646)">
<path d="M12.2497 5.24998C12.097 5.40576 12.0115 5.61519 12.0115 5.83332C12.0115 6.05144 12.097 6.26088 12.2497 6.41665L13.5831 7.74998C13.7388 7.90267 13.9483 7.9882 14.1664 7.9882C14.3845 7.9882 14.594 7.90267 14.7497 7.74998L17.3381 5.16248C17.6047 4.89415 18.0572 4.97915 18.1572 5.34415C18.409 6.25988 18.3948 7.22837 18.1162 8.13631C17.8376 9.04425 17.3063 9.85407 16.5842 10.471C15.8622 11.088 14.9794 11.4865 14.0391 11.62C13.0988 11.7536 12.14 11.6165 11.2747 11.225L4.68307 17.8166C4.35155 18.1481 3.90196 18.3342 3.43319 18.3341C2.96443 18.334 2.5149 18.1478 2.18349 17.8162C1.85208 17.4847 1.66594 17.0351 1.66602 16.5664C1.66609 16.0976 1.85238 15.6481 2.1839 15.3166L8.77557 8.72498C8.38402 7.85974 8.24699 6.90089 8.38052 5.96061C8.51404 5.02033 8.91259 4.13753 9.52954 3.4155C10.1465 2.69347 10.9563 2.16208 11.8642 1.88351C12.7722 1.60493 13.7407 1.59071 14.6564 1.84248C15.0214 1.94248 15.1064 2.39415 14.8389 2.66248L12.2497 5.24998Z" stroke="#DC2626" stroke-width="2" stroke-linecap="round" stroke-linejoin="round"/>
</g>
<defs>
<clipPath id="clip0_904_646">
<rect width="20" height="20" fill="white"/>
</clipPath>
</defs>
</svg>
