<svg width="13" height="13" viewBox="0 0 13 13" fill="none" xmlns="http://www.w3.org/2000/svg">
<path d="M0.806495 13C0.588946 13 0.400143 12.9312 0.240086 12.7935C0.0800286 12.6558 0 12.4963 0 12.3148V10.6078C0 9.63226 0.360652 8.77059 1.08196 8.02276C1.80326 7.27494 2.73067 6.79804 3.86419 6.59207C3.3469 6.89721 2.94599 7.28133 2.66146 7.74444C2.37692 8.20755 2.23466 8.70387 2.23466 9.23341V12.3134C2.23466 12.4323 2.25559 12.5512 2.29745 12.6699C2.33932 12.7888 2.40379 12.8988 2.49086 13H0.806495ZM3.6465 13C3.42755 13 3.23763 12.932 3.07674 12.796C2.91584 12.6601 2.8354 12.4997 2.8354 12.3148V9.23411C2.8354 8.47126 3.15258 7.82483 3.78695 7.29483C4.42132 6.76494 5.19202 6.5 6.09906 6.5H9.75539C10.6582 6.5 11.4248 6.76494 12.0549 7.29483C12.685 7.82483 13 8.47126 13 9.23411V10.2659C13 11.0287 12.685 11.6751 12.0549 12.205C11.4248 12.735 10.6561 13 9.74911 13H3.6465ZM6.50638 5.12951C5.65712 5.12951 4.93658 4.88065 4.34478 4.38292C3.75283 3.88507 3.45686 3.27902 3.45686 2.56476C3.45686 1.8505 3.75283 1.2445 4.34478 0.74677C4.93658 0.248923 5.65712 0 6.50638 0C7.35565 0 8.07619 0.248923 8.66799 0.74677C9.25994 1.2445 9.55591 1.8505 9.55591 2.56476C9.55591 3.27902 9.25994 3.88507 8.66799 4.38292C8.07619 4.88065 7.35565 5.12951 6.50638 5.12951Z" fill="#787879"/>
</svg>
