<svg width="29" height="26" viewBox="0 0 29 26" fill="none" xmlns="http://www.w3.org/2000/svg">
<path d="M14.3 5.43333C14.3 5.43333 14.3 5.43333 13.1769 3.95556C11.8764 2.24133 9.95533 1 7.65 1C3.97033 1 1 3.97033 1 7.65C1 9.02433 1.41378 10.2952 2.12311 11.3444C3.32011 13.1326 14.3 24.6444 14.3 24.6444M14.3 5.43333C14.3 5.43333 14.3 5.43333 15.4231 3.95556C16.7236 2.24133 18.6447 1 20.95 1C24.6297 1 27.6 3.97033 27.6 7.65C27.6 9.02433 27.1862 10.2952 26.4769 11.3444C25.2799 13.1326 14.3 24.6444 14.3 24.6444" stroke="black" stroke-width="2" stroke-linecap="round" stroke-linejoin="round"/>
</svg>
