<svg width="13" height="13" viewBox="0 0 13 13" fill="none" xmlns="http://www.w3.org/2000/svg">
<path d="M3.71429 3.75781V2.74219C3.71429 2.57461 3.87098 2.4375 4.0625 2.4375H5.22321C5.41473 2.4375 5.57143 2.57461 5.57143 2.74219V3.75781C5.57143 3.92539 5.41473 4.0625 5.22321 4.0625H4.0625C3.87098 4.0625 3.71429 3.92539 3.71429 3.75781ZM7.77679 4.0625H8.9375C9.12902 4.0625 9.28571 3.92539 9.28571 3.75781V2.74219C9.28571 2.57461 9.12902 2.4375 8.9375 2.4375H7.77679C7.58527 2.4375 7.42857 2.57461 7.42857 2.74219V3.75781C7.42857 3.92539 7.58527 4.0625 7.77679 4.0625ZM4.0625 6.5H5.22321C5.41473 6.5 5.57143 6.36289 5.57143 6.19531V5.17969C5.57143 5.01211 5.41473 4.875 5.22321 4.875H4.0625C3.87098 4.875 3.71429 5.01211 3.71429 5.17969V6.19531C3.71429 6.36289 3.87098 6.5 4.0625 6.5ZM7.77679 6.5H8.9375C9.12902 6.5 9.28571 6.36289 9.28571 6.19531V5.17969C9.28571 5.01211 9.12902 4.875 8.9375 4.875H7.77679C7.58527 4.875 7.42857 5.01211 7.42857 5.17969V6.19531C7.42857 6.36289 7.58527 6.5 7.77679 6.5ZM5.57143 8.63281V7.61719C5.57143 7.44961 5.41473 7.3125 5.22321 7.3125H4.0625C3.87098 7.3125 3.71429 7.44961 3.71429 7.61719V8.63281C3.71429 8.80039 3.87098 8.9375 4.0625 8.9375H5.22321C5.41473 8.9375 5.57143 8.80039 5.57143 8.63281ZM7.77679 8.9375H8.9375C9.12902 8.9375 9.28571 8.80039 9.28571 8.63281V7.61719C9.28571 7.44961 9.12902 7.3125 8.9375 7.3125H7.77679C7.58527 7.3125 7.42857 7.44961 7.42857 7.61719V8.63281C7.42857 8.80039 7.58527 8.9375 7.77679 8.9375ZM13 12.0859V13H0V12.0859C0 11.9184 0.156696 11.7812 0.348214 11.7812H0.914062V0.609375C0.914062 0.27168 1.22455 0 1.61049 0H11.3895C11.7754 0 12.0859 0.27168 12.0859 0.609375V11.7812H12.6518C12.8433 11.7812 13 11.9184 13 12.0859ZM2.30692 11.7559H5.57143V10.0547C5.57143 9.88711 5.72812 9.75 5.91964 9.75H7.08036C7.27187 9.75 7.42857 9.88711 7.42857 10.0547V11.7559H10.6931V1.24414L2.32143 1.21875L2.30692 11.7559Z" fill="#918C8C"/>
</svg>
