<svg width="36" height="43" viewBox="0 0 36 43" fill="none" xmlns="http://www.w3.org/2000/svg">
<g clip-path="url(#clip0_471_764)">
<path d="M30.5294 3.34705C28.5715 1.0857 25.0321 0.116211 20.5043 0.116211H7.36311C6.91509 0.116141 6.48176 0.278061 6.14105 0.572844C5.80034 0.867628 5.57462 1.27593 5.50449 1.7243L0.0327539 36.8885C-0.0760063 37.5819 0.453884 38.2098 1.14748 38.2098H9.26037L11.2979 25.1146L11.2346 25.5247C11.3798 24.599 12.1611 23.9163 13.0862 23.9163H16.9415C24.515 23.9163 30.4453 20.7992 32.1776 11.7822C32.229 11.5155 32.2735 11.2559 32.312 11.0023C32.0934 10.885 32.0934 10.885 32.312 11.0023C32.8279 7.66955 32.3085 5.40094 30.5294 3.34705Z" fill="#27346A"/>
<path d="M14.4022 9.80175C14.6239 9.69456 14.8665 9.6391 15.1122 9.63943H25.4146C26.6346 9.63943 27.7725 9.71988 28.8123 9.88946C29.1033 9.9365 29.3928 9.99263 29.6803 10.0578C30.0879 10.1489 30.4907 10.2604 30.8873 10.3919C31.3986 10.5649 31.8746 10.7664 32.3122 11.0023C32.8279 7.66826 32.3085 5.40094 30.5295 3.34705C28.5704 1.0857 25.0321 0.116211 20.5043 0.116211H7.36198C6.43668 0.116211 5.6495 0.7988 5.50449 1.7243L0.0327547 36.8872C-0.0760055 37.5817 0.453884 38.2088 1.14635 38.2088H9.26037L13.4875 11.0462C13.5291 10.7792 13.6341 10.5265 13.7934 10.3097C13.9528 10.0929 14.1617 9.91861 14.4022 9.80175Z" fill="#27346A"/>
<path d="M32.1774 11.782C30.4451 20.7978 24.515 23.9162 16.9413 23.9162H13.0849C12.1598 23.9162 11.3784 24.5989 11.2346 25.5245L8.69983 41.8069C8.60512 42.4137 9.06826 42.9636 9.67417 42.9636H16.5131C16.9049 42.9635 17.2838 42.8218 17.5816 42.5639C17.8794 42.306 18.0767 41.9489 18.1379 41.5568L18.2045 41.2037L19.4935 32.9261L19.5765 32.4686C19.6378 32.0765 19.835 31.7195 20.1328 31.4616C20.4306 31.2037 20.8095 31.062 21.2012 31.0618H22.2247C28.8497 31.0618 34.0372 28.3346 35.5531 20.4471C36.1858 17.1509 35.8584 14.3989 34.1846 12.4659C33.6769 11.8804 33.0464 11.3969 32.3119 11.0022C32.2721 11.2571 32.229 11.5153 32.1774 11.782Z" fill="#2790C3"/>
<path d="M30.4997 10.2698C30.2296 10.1899 29.9569 10.1191 29.6821 10.0576C29.3944 9.99354 29.105 9.9378 28.8142 9.89047C27.7732 9.71975 26.6362 9.63916 25.4151 9.63916H15.1139C14.8681 9.63875 14.6253 9.69467 14.4039 9.80276C14.163 9.91921 13.9539 10.0934 13.7945 10.3102C13.6351 10.5271 13.5302 10.78 13.4891 11.0472L11.2996 25.1145L11.2363 25.5245C11.3804 24.5989 12.1616 23.9162 13.0869 23.9162H16.9433C24.5169 23.9162 30.447 20.7991 32.1793 11.782C32.2308 11.5154 32.2741 11.2569 32.3139 11.0022C31.8753 10.7677 31.4003 10.5647 30.889 10.3929C30.76 10.3496 30.6303 10.3085 30.4998 10.2698" fill="#1F264F"/>
</g>
<defs>
<clipPath id="clip0_471_764">
<rect width="36" height="43" fill="white"/>
</clipPath>
</defs>
</svg>
