<svg width="25" height="24" viewBox="0 0 25 24" fill="none" xmlns="http://www.w3.org/2000/svg">
<path d="M14 20.846L8 18.746L4.04225 20.2767C3.78592 20.3717 3.54808 20.3439 3.32875 20.1932C3.10958 20.0426 3 19.8307 3 19.5575V7.32675C3 7.14858 3.04325 6.98583 3.12975 6.8385C3.21625 6.691 3.34225 6.58842 3.50775 6.53075L8 5L14 7.1L17.9578 5.56925C18.2141 5.47425 18.4519 5.4925 18.6712 5.624C18.8904 5.75533 19 5.95117 19 6.2115V18.596C19 18.787 18.9471 18.9531 18.8413 19.0943C18.7356 19.2353 18.5937 19.3346 18.4155 19.3923L14 20.846ZM13.5 19.6267V7.92675L8.5 6.18075V17.8807L13.5 19.6267ZM14.5 19.6267L18 18.473V6.623L14.5 7.92675V19.6267ZM4 19.223L7.5 17.8807V6.18075L4 7.373V19.223Z" fill="black"/>
</svg>
