<svg width="25" height="25" viewBox="0 0 25 25" fill="none" xmlns="http://www.w3.org/2000/svg">
<path d="M1.13748 15.8667C1.43806 15.8667 1.72633 15.9861 1.93887 16.1986C2.15141 16.4112 2.27082 16.6994 2.27082 17V18.36C2.27082 19.3301 2.27082 19.992 2.31388 20.502C2.35242 20.9984 2.42722 21.2523 2.51788 21.4313C2.73548 21.8552 3.08228 22.202 3.50842 22.4196C3.68522 22.5103 3.93908 22.5828 4.43775 22.6236C4.94548 22.6667 5.60735 22.6667 6.57748 22.6667H7.93748C8.23806 22.6667 8.52633 22.7861 8.73887 22.9986C8.95141 23.2112 9.07082 23.4994 9.07082 23.8C9.07082 24.1006 8.95141 24.3888 8.73887 24.6014C8.52633 24.8139 8.23806 24.9333 7.93748 24.9333H6.52988C5.61868 24.9333 4.86615 24.9333 4.25188 24.8812C3.61495 24.8313 3.02788 24.7203 2.47935 24.4392C1.62639 24.0046 0.932904 23.3111 0.498284 22.4581C0.217218 21.9096 0.106151 21.3225 0.054018 20.6856C0.0080328 19.9272 -0.00860202 19.1673 0.00415114 18.4076V17C0.00415114 16.6994 0.123556 16.4112 0.336097 16.1986C0.548638 15.9861 0.836906 15.8667 1.13748 15.8667ZM23.8041 15.8667C24.1047 15.8667 24.393 15.9861 24.6055 16.1986C24.8181 16.4112 24.9375 16.6994 24.9375 17V18.4076C24.9375 19.3188 24.9375 20.0713 24.8854 20.6856C24.8355 21.3225 24.7244 21.9096 24.4433 22.4581C24.0087 23.3111 23.3152 24.0046 22.4623 24.4392C21.9137 24.7203 21.3267 24.8313 20.6898 24.8812C20.0778 24.9333 19.323 24.9333 18.4118 24.9333H17.0042C16.7036 24.9333 16.4153 24.8139 16.2028 24.6014C15.9902 24.3888 15.8708 24.1006 15.8708 23.8C15.8708 23.4994 15.9902 23.2112 16.2028 22.9986C16.4153 22.7861 16.7036 22.6667 17.0042 22.6667H18.3642C19.3343 22.6667 19.9962 22.6667 20.5062 22.6236C21.0026 22.5828 21.2564 22.5103 21.4355 22.4196C21.8611 22.2019 22.207 21.8552 22.4237 21.4291C22.5144 21.2523 22.587 20.9984 22.6278 20.4997C22.6708 19.992 22.6708 19.3301 22.6708 18.36V17C22.6708 16.6994 22.7902 16.4112 23.0028 16.1986C23.2153 15.9861 23.5036 15.8667 23.8041 15.8667ZM7.93748 0C8.23806 0 8.52633 0.119405 8.73887 0.331946C8.95141 0.544487 9.07082 0.832755 9.07082 1.13333C9.07082 1.43391 8.95141 1.72218 8.73887 1.93472C8.52633 2.14726 8.23806 2.26667 7.93748 2.26667H6.57748C5.60735 2.26667 4.94548 2.26667 4.43548 2.30973C3.93908 2.34827 3.68522 2.42307 3.50615 2.51373C3.08051 2.73143 2.7346 3.07813 2.51788 3.50427C2.42722 3.68107 2.35242 3.93493 2.31388 4.4336C2.27082 4.94133 2.27082 5.60093 2.27082 6.57333V7.93333C2.27082 8.23391 2.15141 8.52218 1.93887 8.73472C1.72633 8.94726 1.43806 9.06667 1.13748 9.06667C0.836906 9.06667 0.548638 8.94726 0.336097 8.73472C0.123556 8.52218 0.00415114 8.23391 0.00415114 7.93333V6.52573C0.00415114 5.61453 0.00415131 4.862 0.054018 4.24773C0.106151 3.6108 0.217218 3.02373 0.498284 2.4752C0.932904 1.62224 1.62639 0.928753 2.47935 0.494133C3.02788 0.213067 3.61495 0.102 4.25188 0.0498668C4.86388 1.6888e-07 5.61868 0 6.52988 0H7.93748ZM18.4118 0C19.323 0 20.0755 1.6888e-07 20.6898 0.0498668C21.3267 0.102 21.9137 0.213067 22.4623 0.494133C23.3152 0.928753 24.0087 1.62224 24.4433 2.4752C24.7244 3.02373 24.8355 3.6108 24.8854 4.24773C24.9375 4.85973 24.9375 5.61453 24.9375 6.52573V7.93333C24.9375 8.23391 24.8181 8.52218 24.6055 8.73472C24.393 8.94726 24.1047 9.06667 23.8041 9.06667C23.5036 9.06667 23.2153 8.94726 23.0028 8.73472C22.7902 8.52218 22.6708 8.23391 22.6708 7.93333V6.57333C22.6708 5.6032 22.6708 4.94133 22.6278 4.43133C22.587 3.93493 22.5144 3.68107 22.4237 3.502C22.2061 3.07636 21.8594 2.73045 21.4332 2.51373C21.2564 2.42307 21.0026 2.34827 20.5039 2.30973C19.7914 2.26947 19.0777 2.25511 18.3642 2.26667H17.0042C16.7036 2.26667 16.4153 2.14726 16.2028 1.93472C15.9902 1.72218 15.8708 1.43391 15.8708 1.13333C15.8708 0.832755 15.9902 0.544487 16.2028 0.331946C16.4153 0.119405 16.7036 0 17.0042 0H18.4118Z" fill="#1B8785"/>
</svg>
