<svg width="97" height="41" viewBox="0 0 97 41" fill="none" xmlns="http://www.w3.org/2000/svg">
<path d="M96.9672 21.0901C96.9672 14.1145 93.6271 8.61038 87.2436 8.61038C80.8327 8.61038 76.9541 14.1147 76.9541 21.0357C76.9541 29.2372 81.5333 33.379 88.1053 33.379C91.3107 33.379 93.7349 32.6433 95.5665 31.6079V26.1582C93.7351 27.0847 91.634 27.657 88.9674 27.657C86.3546 27.657 84.0382 26.7305 83.742 23.5152H96.9134C96.9134 23.1608 96.9672 21.744 96.9672 21.0901ZM83.6611 18.5015C83.6611 15.4225 85.5197 14.1417 87.2167 14.1417C88.8596 14.1417 90.6105 15.4225 90.6105 18.5015H83.6611ZM66.5574 8.61038C63.9175 8.61038 62.2205 9.86376 61.278 10.7359L60.9276 9.04644H55.002V40.8176L61.7357 39.3736L61.7628 31.6623C62.7325 32.3708 64.1599 33.379 66.5303 33.379C71.3517 33.379 75.7422 29.4552 75.7422 20.8177C75.7153 12.9156 71.2709 8.61038 66.5572 8.61038M64.9409 27.3844C63.3518 27.3844 62.4088 26.8123 61.7626 26.1038L61.7355 15.9946C62.4359 15.2045 63.4056 14.6596 64.9409 14.6596C67.392 14.6596 69.0889 17.4388 69.0889 21.0083C69.0889 24.6596 67.4189 27.3844 64.9409 27.3844ZM45.7361 7.00276L52.4969 5.53136V0L45.7361 1.4442V7.00276ZM45.7361 9.07365H52.4969V32.9157H45.7361V9.07365ZM38.4907 11.0899L38.0596 9.07365H32.2416V32.9157H38.9755V16.7577C40.5645 14.6596 43.2582 15.0411 44.0932 15.3407V9.07365C43.2313 8.7466 40.0798 8.14712 38.4907 11.0899ZM25.0228 3.16083L18.4507 4.57763L18.4238 26.4034C18.4238 30.4364 21.4136 33.4062 25.4001 33.4062C27.6088 33.4062 29.2248 32.9975 30.1136 32.5071V26.9757C29.2519 27.33 24.9959 28.5833 24.9959 24.5506V14.8774H30.1136V9.07365H24.9959L25.0228 3.16083ZM6.8146 15.9946C6.8146 14.932 7.67651 14.5232 9.10431 14.5232C11.1512 14.5232 13.737 15.1501 15.7841 16.2672V9.86376C13.5485 8.96463 11.3399 8.61038 9.10431 8.61038C3.63627 8.61038 0 11.4988 0 16.3218C0 23.8421 10.2353 22.6433 10.2353 25.8859C10.2353 27.1391 9.1581 27.548 7.64961 27.548C5.41406 27.548 2.55884 26.6215 0.296204 25.3681V31.8532C2.80125 32.9431 5.33319 33.4062 7.64961 33.4062C13.2521 33.4062 17.1039 30.5998 17.1039 25.7223C17.077 17.6024 6.8146 19.0464 6.8146 15.9946Z" fill="#635BFF"/>
</svg>
