<svg width="30" height="30" viewBox="0 0 30 30" fill="none" xmlns="http://www.w3.org/2000/svg">
<path d="M8.3097 0.614852C7.91589 0.221163 7.38185 0 6.825 0C6.26816 0 5.73411 0.221163 5.3403 0.614852L0.924002 5.02485C0.630662 5.31783 0.398041 5.66583 0.23948 6.0489C0.0809195 6.43196 -0.000462123 6.84256 1.97382e-06 7.25715V26.2517C1.97382e-06 27.0871 0.331876 27.8883 0.922616 28.479C1.51336 29.0698 2.31457 29.4017 3.15 29.4017H8.4V22.0517C8.4 21.7732 8.51063 21.5061 8.70754 21.3092C8.90445 21.1123 9.17152 21.0017 9.45 21.0017H13.65V7.25505C13.6499 6.84117 13.5683 6.43137 13.4097 6.04906C13.2512 5.66675 13.0188 5.31943 12.726 5.02695L8.3097 0.614852ZM15.75 7.25505V21.0017H19.95C20.2285 21.0017 20.4956 21.1123 20.6925 21.3092C20.8894 21.5061 21 21.7732 21 22.0517V29.4017H26.25C27.0854 29.4017 27.8866 29.0698 28.4774 28.479C29.0681 27.8883 29.4 27.0871 29.4 26.2517V7.25505C29.3999 6.84117 29.3183 6.43137 29.1597 6.04906C29.0012 5.66675 28.7688 5.31943 28.476 5.02695L24.0597 0.616952C23.6659 0.223262 23.1318 0.00210035 22.575 0.00210035C22.0182 0.00210035 21.4841 0.223262 21.0903 0.616952L16.674 5.02695C16.3812 5.31943 16.1488 5.66675 15.9903 6.04906C15.8317 6.43137 15.7501 6.84117 15.75 7.25505ZM15.75 23.1017V29.4017H18.9V23.1017H15.75ZM13.65 29.4017V23.1017H10.5V29.4017H13.65ZM8.4 9.97665C8.4 10.1835 8.35926 10.3883 8.28011 10.5794C8.20096 10.7705 8.08495 10.9441 7.93869 11.0903C7.79244 11.2366 7.61882 11.3526 7.42773 11.4318C7.23664 11.5109 7.03183 11.5517 6.825 11.5517C6.61817 11.5517 6.41336 11.5109 6.22228 11.4318C6.03119 11.3526 5.85756 11.2366 5.71131 11.0903C5.56506 10.9441 5.44904 10.7705 5.36989 10.5794C5.29074 10.3883 5.25 10.1835 5.25 9.97665C5.25 9.55894 5.41594 9.15833 5.71131 8.86296C6.00668 8.56759 6.40729 8.40165 6.825 8.40165C7.24272 8.40165 7.64333 8.56759 7.93869 8.86296C8.23407 9.15833 8.4 9.55894 8.4 9.97665ZM6.825 17.8517C6.40729 17.8517 6.00668 17.6857 5.71131 17.3903C5.41594 17.095 5.25 16.6944 5.25 16.2767C5.25 15.8589 5.41594 15.4583 5.71131 15.163C6.00668 14.8676 6.40729 14.7017 6.825 14.7017C7.24272 14.7017 7.64333 14.8676 7.93869 15.163C8.23407 15.4583 8.4 15.8589 8.4 16.2767C8.4 16.6944 8.23407 17.095 7.93869 17.3903C7.64333 17.6857 7.24272 17.8517 6.825 17.8517ZM24.15 9.97665C24.15 10.3944 23.9841 10.795 23.6887 11.0903C23.3933 11.3857 22.9927 11.5517 22.575 11.5517C22.1573 11.5517 21.7567 11.3857 21.4613 11.0903C21.1659 10.795 21 10.3944 21 9.97665C21 9.55894 21.1659 9.15833 21.4613 8.86296C21.7567 8.56759 22.1573 8.40165 22.575 8.40165C22.9927 8.40165 23.3933 8.56759 23.6887 8.86296C23.9841 9.15833 24.15 9.55894 24.15 9.97665ZM22.575 17.8517C22.1573 17.8517 21.7567 17.6857 21.4613 17.3903C21.1659 17.095 21 16.6944 21 16.2767C21 15.8589 21.1659 15.4583 21.4613 15.163C21.7567 14.8676 22.1573 14.7017 22.575 14.7017C22.9927 14.7017 23.3933 14.8676 23.6887 15.163C23.9841 15.4583 24.15 15.8589 24.15 16.2767C24.15 16.6944 23.9841 17.095 23.6887 17.3903C23.3933 17.6857 22.9927 17.8517 22.575 17.8517Z" fill="#6C7F91"/>
</svg>
