<svg width="26" height="26" viewBox="0 0 26 26" fill="none" xmlns="http://www.w3.org/2000/svg">
<g clip-path="url(#clip0_329_1447)">
<g clip-path="url(#clip1_329_1447)">
<path d="M22.4911 10.984H21.7588V6.59039C21.7588 6.39619 21.6817 6.20993 21.5443 6.07261C21.407 5.93528 21.2207 5.85813 21.0265 5.85813H3.45221C3.27882 5.86096 3.11005 5.80216 2.97596 5.6922C2.84186 5.58224 2.75114 5.42826 2.71995 5.25767V4.99406C2.75114 4.82347 2.84186 4.66949 2.97596 4.55953C3.11005 4.44958 3.27882 4.39078 3.45221 4.3936H20.719C20.9132 4.3936 21.0994 4.31645 21.2368 4.17913C21.3741 4.0418 21.4512 3.85555 21.4512 3.66134C21.4512 3.46713 21.3741 3.28088 21.2368 3.14355C21.0994 3.00623 20.9132 2.92908 20.719 2.92908H3.45221C2.86959 2.92908 2.31083 3.16052 1.89885 3.5725C1.48687 3.98448 1.25542 4.54324 1.25542 5.12587C1.25015 5.21366 1.25015 5.30169 1.25542 5.38948V20.4521C1.2583 20.8464 1.3388 21.2362 1.49234 21.5994C1.64588 21.9626 1.86945 22.2919 2.15028 22.5687C2.43111 22.8454 2.7637 23.0641 3.12906 23.2123C3.49443 23.3606 3.8854 23.4353 4.27967 23.4324H21.0265C21.2207 23.4324 21.407 23.3553 21.5443 23.218C21.6817 23.0807 21.7588 22.8944 21.7588 22.7002V18.3066H22.4911C22.6853 18.3066 22.8715 18.2295 23.0089 18.0921C23.1462 17.9548 23.2233 17.7686 23.2233 17.5743V11.7162C23.2233 11.522 23.1462 11.3358 23.0089 11.1984C22.8715 11.0611 22.6853 10.984 22.4911 10.984ZM20.2943 21.9679H4.27967C3.87239 21.9719 3.48002 21.8148 3.18793 21.5309C2.89584 21.2471 2.72765 20.8594 2.71995 20.4521V7.23479C2.95762 7.3038 3.20497 7.33348 3.45221 7.32266H20.2943V10.984H15.1684C14.1974 10.984 13.2661 11.3697 12.5795 12.0563C11.8929 12.743 11.5071 13.6742 11.5071 14.6453C11.5071 15.6163 11.8929 16.5476 12.5795 17.2342C13.2661 17.9209 14.1974 18.3066 15.1684 18.3066H20.2943V21.9679ZM21.7588 16.8421H15.1684C14.5858 16.8421 14.027 16.6106 13.6151 16.1987C13.2031 15.7867 12.9716 15.2279 12.9716 14.6453C12.9716 14.0627 13.2031 13.5039 13.6151 13.0919C14.027 12.6799 14.5858 12.4485 15.1684 12.4485H21.7588V16.8421Z" fill="#FFFCFC"/>
<path d="M15.908 15.7437C16.5146 15.7437 17.0064 15.2519 17.0064 14.6453C17.0064 14.0386 16.5146 13.5469 15.908 13.5469C15.3013 13.5469 14.8096 14.0386 14.8096 14.6453C14.8096 15.2519 15.3013 15.7437 15.908 15.7437Z" fill="#FFFCFC"/>
</g>
</g>
<defs>
<clipPath id="clip0_329_1447">
<rect width="25.42" height="25.42" fill="white"/>
</clipPath>
<clipPath id="clip1_329_1447">
<rect width="26.3615" height="26.3615" fill="white" transform="translate(-0.941406)"/>
</clipPath>
</defs>
</svg>
