<svg width="12" height="12" viewBox="0 0 12 12" fill="none" xmlns="http://www.w3.org/2000/svg">
<g clip-path="url(#clip0_427_394)">
<path d="M7.18893 0.390182L7.88568 0.900182C8.00043 0.984182 8.13393 1.03968 8.27418 1.06143L9.12768 1.19268C9.5499 1.25783 9.94038 1.4558 10.2425 1.75789C10.5446 2.05998 10.7425 2.45046 10.8077 2.87268L10.9382 3.72693C10.9599 3.86718 11.0154 4.00068 11.0994 4.11543L11.6094 4.81143C11.8623 5.1562 11.9986 5.57262 11.9986 6.00018C11.9986 6.42774 11.8623 6.84416 11.6094 7.18893L11.0994 7.88493C11.0157 7.99988 10.9605 8.13301 10.9382 8.27343L10.8069 9.12693C10.7419 9.5494 10.5439 9.94013 10.2416 10.2424C9.93938 10.5446 9.54865 10.7426 9.12618 10.8077L8.27268 10.9389C8.13226 10.9612 7.99913 11.0165 7.88418 11.1002L7.18818 11.6102C6.84341 11.863 6.42699 11.9994 5.99943 11.9994C5.57187 11.9994 5.15545 11.863 4.81068 11.6102L4.11468 11.1002C3.99974 11.0165 3.8666 10.9612 3.72618 10.9389L2.87268 10.8077C2.45046 10.7425 2.05998 10.5446 1.75789 10.2425C1.4558 9.94038 1.25783 9.5499 1.19268 9.12768L1.06143 8.27418C1.03912 8.13376 0.983865 8.00063 0.900182 7.88568L0.390182 7.18968C0.137316 6.84491 0.000976562 6.42849 0.000976563 6.00093C0.000976562 5.57337 0.137316 5.15695 0.390182 4.81218L0.900182 4.11618C0.984182 4.00143 1.03968 3.86793 1.06143 3.72768L1.19268 2.87268C1.25783 2.45046 1.4558 2.05998 1.75789 1.75789C2.05998 1.4558 2.45046 1.25783 2.87268 1.19268L3.72693 1.06143C3.86718 1.03968 4.00068 0.984182 4.11543 0.900182L4.81143 0.390182C5.1562 0.137316 5.57262 0.000976562 6.00018 0.000976562C6.42774 0.000976562 6.84416 0.137316 7.18893 0.390182ZM5.47743 1.29618L4.78218 1.80618C4.52076 1.99746 4.21727 2.12323 3.89718 2.17293L3.04443 2.30343C2.85835 2.33204 2.68624 2.41924 2.55312 2.55237C2.41999 2.68549 2.33279 2.8576 2.30418 3.04368L2.17368 3.89568C2.12398 4.21577 1.99821 4.51926 1.80693 4.78068L1.29693 5.47668C1.1859 5.62836 1.12605 5.81146 1.12605 5.99943C1.12605 6.18741 1.1859 6.3705 1.29693 6.52218L1.80693 7.21743C1.99893 7.47843 2.12493 7.78218 2.17368 8.10243L2.30418 8.95518C2.36268 9.33693 2.66268 9.63693 3.04443 9.69543L3.89643 9.82593C4.21652 9.87564 4.52001 10.0014 4.78143 10.1927L5.47743 10.7027C5.78793 10.9314 6.21168 10.9314 6.52293 10.7027L7.21818 10.1927C7.4796 10.0014 7.7831 9.87564 8.10318 9.82593L8.95593 9.69543C9.14201 9.66683 9.31412 9.57962 9.44725 9.4465C9.58037 9.31337 9.66758 9.14126 9.69618 8.95518L9.82668 8.10318C9.87639 7.7831 10.0022 7.4796 10.1934 7.21818L10.7034 6.52218C10.8145 6.3705 10.8743 6.18741 10.8743 5.99943C10.8743 5.81146 10.8145 5.62836 10.7034 5.47668L10.1934 4.78143C10.0022 4.52001 9.87639 4.21652 9.82668 3.89643L9.69618 3.04368C9.66758 2.8576 9.58037 2.68549 9.44725 2.55237C9.31412 2.41924 9.14201 2.33204 8.95593 2.30343L8.10393 2.17293C7.78385 2.12323 7.48035 1.99746 7.21893 1.80618L6.52293 1.29618C6.37125 1.18515 6.18816 1.1253 6.00018 1.1253C5.81221 1.1253 5.62911 1.18515 5.47743 1.29618ZM8.46018 5.08518L5.64768 7.89768C5.54221 8.00302 5.39925 8.06219 5.25018 8.06219C5.10112 8.06219 4.95815 8.00302 4.85268 7.89768L3.54018 6.58518C3.4407 6.47857 3.38651 6.3375 3.38902 6.1917C3.39154 6.04591 3.45058 5.90679 3.55368 5.80368C3.65679 5.70058 3.79591 5.64154 3.9417 5.63902C4.0875 5.63651 4.22857 5.6907 4.33518 5.79018L5.25018 6.70518L7.66518 4.29018C7.77179 4.1907 7.91287 4.13651 8.05866 4.13902C8.20445 4.14154 8.34357 4.20058 8.44668 4.30368C8.54979 4.40679 8.60882 4.54591 8.61134 4.6917C8.61386 4.8375 8.55966 4.97857 8.46018 5.08518Z" fill="white"/>
</g>
<defs>
<clipPath id="clip0_427_394">
<rect width="12" height="12" fill="white"/>
</clipPath>
</defs>
</svg>
