<svg width="73" height="73" viewBox="0 0 73 73" fill="none" xmlns="http://www.w3.org/2000/svg">
<path d="M27.1875 30.8269H36.25C37.2114 30.8269 38.1335 30.445 38.8133 29.7652C39.4931 29.0854 39.875 28.1633 39.875 27.2019C39.875 26.2405 39.4931 25.3185 38.8133 24.6386C38.1335 23.9588 37.2114 23.5769 36.25 23.5769H32.625V21.7644C32.625 20.803 32.2431 19.881 31.5633 19.2011C30.8835 18.5213 29.9614 18.1394 29 18.1394C28.0386 18.1394 27.1166 18.5213 26.4368 19.2011C25.757 19.881 25.375 20.803 25.375 21.7644V23.7582C23.1726 24.2054 21.2148 25.455 19.8819 27.2645C18.549 29.074 17.9359 31.3142 18.1618 33.5502C18.3877 35.7862 19.4363 37.8586 21.1042 39.3649C22.772 40.8713 24.9401 41.7042 27.1875 41.7019H30.8125C31.2932 41.7019 31.7543 41.8929 32.0942 42.2328C32.4341 42.5727 32.625 43.0337 32.625 43.5144C32.625 43.9951 32.4341 44.4561 32.0942 44.796C31.7543 45.136 31.2932 45.3269 30.8125 45.3269H21.75C20.7886 45.3269 19.8666 45.7088 19.1868 46.3886C18.507 47.0685 18.125 47.9905 18.125 48.9519C18.125 49.9133 18.507 50.8354 19.1868 51.5152C19.8666 52.195 20.7886 52.5769 21.75 52.5769H25.375V54.3894C25.375 55.3508 25.757 56.2729 26.4368 56.9527C27.1166 57.6325 28.0386 58.0144 29 58.0144C29.9614 58.0144 30.8835 57.6325 31.5633 56.9527C32.2431 56.2729 32.625 55.3508 32.625 54.3894V52.3957C34.8275 51.9484 36.7852 50.6988 38.1182 48.8893C39.4511 47.0799 40.0641 44.8397 39.8383 42.6036C39.6124 40.3676 38.5637 38.2953 36.8959 36.7889C35.228 35.2825 33.0599 34.4497 30.8125 34.4519H27.1875C26.7068 34.4519 26.2458 34.261 25.9059 33.921C25.566 33.5811 25.375 33.1201 25.375 32.6394C25.375 32.1587 25.566 31.6977 25.9059 31.3578C26.2458 31.0179 26.7068 30.8269 27.1875 30.8269ZM68.875 36.2644H58V3.63941C58.0026 3.00065 57.8363 2.37256 57.518 1.81874C57.1997 1.26492 56.7407 0.805036 56.1875 0.485658C55.6365 0.167498 55.0114 0 54.375 0C53.7387 0 53.1136 0.167498 52.5625 0.485658L41.6875 6.72066L30.8125 0.485658C30.2615 0.167498 29.6364 0 29 0C28.3637 0 27.7386 0.167498 27.1875 0.485658L16.3125 6.72066L5.43753 0.485658C4.88646 0.167498 4.26135 0 3.62503 0C2.98871 0 2.3636 0.167498 1.81253 0.485658C1.25934 0.805036 0.800362 1.26492 0.482075 1.81874C0.163788 2.37256 -0.00250736 3.00065 2.85754e-05 3.63941V61.6394C2.85754e-05 64.5236 1.14578 67.2897 3.18524 69.3292C5.2247 71.3687 7.9908 72.5144 10.875 72.5144H61.625C64.5093 72.5144 67.2754 71.3687 69.3148 69.3292C71.3543 67.2897 72.5 64.5236 72.5 61.6394V39.8894C72.5 38.928 72.1181 38.006 71.4383 37.3261C70.7585 36.6463 69.8364 36.2644 68.875 36.2644ZM10.875 65.2644C9.91362 65.2644 8.99159 64.8825 8.31177 64.2027C7.63195 63.5229 7.25003 62.6008 7.25003 61.6394V9.91066L14.5 14.0432C15.0595 14.3354 15.6813 14.488 16.3125 14.488C16.9437 14.488 17.5656 14.3354 18.125 14.0432L29 7.80816L39.875 14.0432C40.4345 14.3354 41.0563 14.488 41.6875 14.488C42.3187 14.488 42.9406 14.3354 43.5 14.0432L50.75 9.91066V61.6394C50.7598 62.8761 50.9805 64.102 51.4025 65.2644H10.875ZM65.25 61.6394C65.25 62.6008 64.8681 63.5229 64.1883 64.2027C63.5085 64.8825 62.5864 65.2644 61.625 65.2644C60.6636 65.2644 59.7416 64.8825 59.0618 64.2027C58.3819 63.5229 58 62.6008 58 61.6394V43.5144H65.25V61.6394Z" fill="white" fill-opacity="0.12"/>
</svg>
